<svg xmlns="http://www.w3.org/2000/svg" viewBox="0 0 434 501.45"><defs><style>.cls-1,.cls-8{fill:#21409a;}.cls-1{stroke:#1b75bc;}.cls-1,.cls-3,.cls-4,.cls-5{stroke-miterlimit:10;}.cls-2{fill:#231f20;}.cls-3,.cls-4,.cls-6{fill:none;}.cls-3,.cls-4,.cls-5{stroke:#231f20;}.cls-4{stroke-width:0.97px;}.cls-5{fill:#f26522;}.cls-7{fill:#fff;}</style></defs><title>Ресурс 3</title><g id="Слой_2" data-name="Слой 2"><g id="Layer_9" data-name="Layer 9"><path class="cls-1" d="M47.63,373.17l-3.89,11c-1.53,4.36.06,7.27,4.13,8.7a13.37,13.37,0,0,0,6.1.56l5.66-16.08,8.6,3L54.81,418.57l-8.6-3,5.53-15.73-.17-.06a19.49,19.49,0,0,1-9.24-1c-6.91-2.43-10.59-7.86-7.7-16.07l4.4-12.5Z"/><path class="cls-1" d="M79.65,425.82l.28-3-.17,0A10.56,10.56,0,0,1,70.7,424c-5.72-1.62-8-6.74-6.67-11.24,2.08-7.33,9.66-9,19.63-6.1l.11-.4c.43-1.5.23-3.87-4.1-5.1a16.6,16.6,0,0,0-8.4-.07v-6.12a24.31,24.31,0,0,1,11.67.63c9.41,2.67,10.84,9.07,9,15.7l-2.79,9.82a44.8,44.8,0,0,0-1.54,7Zm2.74-13.63c-4.6-1.37-8.49-1.29-9.45,2.12a3.28,3.28,0,0,0,2.51,4.33,5,5,0,0,0,5.48-1.94,6.48,6.48,0,0,0,.59-1.45Z"/><path class="cls-1" d="M99.8,411.09c.81-3.75,1.39-7,1.84-9.67l7.74,1.68-.45,4.07.12,0c2.77-2.59,6.39-3.46,10.56-2.56,6.27,1.36,10.72,8,8.74,17.17-2.26,10.44-9.95,13.93-16.34,12.55-3.46-.75-5.86-2.74-6.74-4.9l-.12,0-3.08,14.25-8.92-1.93Zm7.45,8.67a8.83,8.83,0,0,0-.23,1.92,5.51,5.51,0,0,0,4.3,5.35c3.87.84,6.86-1.89,7.91-6.76,1-4.57-.31-8.48-4.3-9.34a5.72,5.72,0,0,0-6.31,3.36,6.81,6.81,0,0,0-.52,1.54Z"/><path class="cls-1" d="M132.1,437.55l4.7-29,9,1.46-4.71,29Zm15.31-35.5a4.58,4.58,0,0,1-5.59,3.71,4.59,4.59,0,1,1,1.53-9.05A4.58,4.58,0,0,1,147.41,402.05Z"/><path class="cls-1" d="M152.72,411.53a101.51,101.51,0,0,1,11.83.56c4.95.54,14.38,2.1,13.62,9-.4,3.76-3.66,5.4-6.65,5.68v.12c4.28,1.19,6.87,3.94,6.44,7.88-.9,8.29-12.25,7.78-18.21,7.13a95.31,95.31,0,0,1-10.14-1.65ZM159,436.17a23.68,23.68,0,0,0,3,.45c3.11.34,6.3-.22,6.62-3.08.27-2.51-2-4-6.22-4.42l-2.63-.29Zm1.43-12.58,2.33.26c3.64.39,6.07-.31,6.31-2.52.21-1.91-1.22-3.27-4.86-3.66a22.69,22.69,0,0,0-3.12-.1Z"/><path class="cls-1" d="M194.52,414.84l-.32,10.61,9.23.28.32-10.61,9.18.27L212,444.72l-9.17-.28.35-11.63-9.24-.28-.35,11.63-9.11-.27.88-29.33Z"/><path class="cls-1" d="M228.4,414.84l.53,9c.27,4.67.23,8,.22,11.95l.25,0c1.17-3.43,1.82-5.75,2.86-8.58l4.94-12.91,11.14-.66L250.07,443l-8.63.51-.52-8.93c-.27-4.55-.14-6.48-.21-12.73l-.24,0c-.95,3.3-1.55,5.26-2.59,8.08-1.61,4.19-3.53,9.41-5.3,14.08l-11.08.65-1.72-29.29Z"/><path class="cls-1" d="M263.67,411.59l1.41,8.89c.73,4.62,1,7.92,1.4,11.87l.25,0c.83-3.53,1.25-5.91,2-8.82l3.65-13.34,11-1.75,4.59,29-8.53,1.36-1.4-8.83c-.71-4.51-.78-6.44-1.46-12.65l-.24,0c-.62,3.38-1,5.39-1.78,8.31-1.2,4.32-2.59,9.7-3.89,14.53l-11,1.74-4.59-29Zm.89-12.41c.47,2.6,1.73,4,3.39,3.77s2.47-2.09,2.24-4.66l5.69-.91c.52,5.57-2.29,8.93-7.39,9.74-5.45.87-8.58-2-9.68-7Z"/><path class="cls-1" d="M331,425.3a22.4,22.4,0,0,1-7.45,3.57c-9.1,2.68-16.54-1.14-19.15-10-2.42-8.23,1.23-16.63,11.71-19.71a21,21,0,0,1,7-.87l.53,6.91a12.53,12.53,0,0,0-5.15.57c-4.6,1.36-6.63,5.52-5.21,10.11,1.52,5.18,5.77,6.87,10,5.61a14.17,14.17,0,0,0,4.76-2.34Z"/><path class="cls-1" d="M327.39,396.66a101.24,101.24,0,0,1,10.71-5.05c4.63-1.85,13.68-4.88,16.26,1.58,1.4,3.51-.7,6.49-3.21,8.13l0,.11c4.34-.95,7.92.27,9.39,3.95,3.09,7.74-7.17,12.61-12.75,14.84a97.41,97.41,0,0,1-9.73,3.3Zm12.49,7,2.18-.87c3.39-1.36,5.21-3.12,4.39-5.18-.71-1.78-2.6-2.32-6-1a23.8,23.8,0,0,0-2.81,1.38Zm4.64,11.78a22.65,22.65,0,0,0,2.88-1c2.9-1.15,5.47-3.14,4.4-5.82-.94-2.34-3.61-2.56-7.57-1l-2.45,1Z"/><path class="cls-1" d="M362.43,372.17a4.58,4.58,0,0,1-2.4,6.26,4.59,4.59,0,1,1-4-8.26A4.57,4.57,0,0,1,362.43,372.17ZM370.52,410l-12.94-26.33,8.18-4L378.71,406Z"/><path class="cls-1" d="M391.85,365l3.48,6L388,375.31l11.2,19.37-8,4.59L380,379.9l-7.38,4.27-3.48-6Z"/><path class="cls-2" d="M0,485.6l108.5-1,108.5-.75,54.25-.47,27.13-.13,27.12.1,27.13.3c9,.14,18.08.24,27.12.44q27.12.5,54.25,1.51v.5q-27.12,1-54.25,1.51c-9,.2-18.08.3-27.12.45l-27.13.29-27.12.1-27.13-.12L217,487.85l-108.5-.75L0,486.1Z"/><path class="cls-2" d="M434,499.1l-108.5,1-108.5.75-54.25.48-27.12.12-27.13-.1-27.12-.29c-9-.15-18.09-.25-27.13-.45Q27.13,500.11,0,499.1v-.5q27.12-1,54.25-1.51c9-.2,18.08-.3,27.13-.44l27.12-.3,27.13-.1,27.12.13,54.25.47,108.5.75,108.5,1Z"/><path class="cls-3" d="M290.13,207.21c-9.64-16.17-12.76-14.86-21.64-12.37-14.24,4-14.24,24.75-29,28.56-8.32,2.14-11.59-2.76-17.52-7.32-7.2-5.54-17.24-8.22-21.31-17.09-2.14-4.65-2-10-1.85-15.09q1.05-30,3-60c.43-6.5.88-13.07-.15-19.51-2.35-14.58-11.87-26.52-22.38-37.25-2.46-2.52-5-5-7.47-7.38L110.55.6c-3.16,1.5-4.46,5.51-3.91,9s2.52,6.49,4.45,9.4l25.11,38a131.54,131.54,0,0,1-29.9-23.86c-2.77,1.17-3.85,4.74-3.18,7.67s2.65,5.36,4.56,7.68l31.17,37.72c-9.15-8.64-18.61-17.46-30.31-22.1-1.25-.49-2.7-.93-3.89-.3-2.68,1.41-.8,5.49,1.31,7.68l40.79,42.33a57.82,57.82,0,0,0-43-6.25c-2.47.62-5.3,1.85-5.73,4.36-.48,2.86,2.5,5,5.15,6.22a62.49,62.49,0,0,0,29,5.42A55,55,0,0,0,115.43,131c-1.61,1.08-3.34,2.61-3.15,4.55.43,4.63,9.15,2.41,11.39,6.49q-6.6,4.35-12.92,9.06a5.93,5.93,0,0,0-2.25,2.52c-1.48,4.26,6,5.29,9,8.71a35.76,35.76,0,0,0-4.39,64.31c.55.16-15.87-.94-23.8-1.41l-12.19-.72c-2.11-.12-4.4-.2-6.14,1s-2.37,3-3,4.87a57.12,57.12,0,0,0,.54,36.29c1.08,3.06,2.52,6.15,5.06,8.16,3.34,2.65,8,3,12.21,2.51,14.85-1.64,29-11.32,43.25-12.67a29.74,29.74,0,0,1,11.44,1q-2.35,7.72-4.73,15.45a51.16,51.16,0,0,0,30.83-10.83c4.94-3.89,9.25-8.75,15-11.31,3.32-1.48,6.94-2.1,10.47-2.91a94.88,94.88,0,0,0,24.36-9.29c3-1.63,5.89-3.44,9.15-4.35,3.86-1.07,8-.82,11.86-1.8,13.4-3.39,20.29-20.06,33.78-23.11a28.77,28.77,0,0,1,8.17-1.08C279.06,208.79,283.78,207.88,290.13,207.21Z"/><path class="cls-4" d="M217.49,196.2A15.07,15.07,0,0,0,216,198c-2.13,2.79-2.66,5.45-5.2,7.65-2.37,2.06-4.22.15-6.13-2.28-3.81-4.86-5-8.66-4.84-16.38v-.12c.25-9.15.94-17.87,1.41-26.72.91,1.94,4.11,2.7,5.95,3.48,5.49,2.32,8.84,7.09,12.6,11.44a44.25,44.25,0,0,0,3.11,3.31,26.87,26.87,0,0,1,3.67,3.72C230.81,188.05,221.06,192.81,217.49,196.2Z"/><path class="cls-5" d="M75.47,356c8.07-3.38,14.3-10.3,18.23-18.12s5.74-16.53,6.86-25.21a14.61,14.61,0,0,1,1-4.24,14,14,0,0,1,3.71-4.35c6-5.33,12-10.69,19-14.72a54,54,0,0,0,7.86-4.92c2.36-2,4.27-4.79,4.38-7.89l-30.76,15.09c1.38-6.06,6.67-10.37,11.93-13.68s11-6.31,14.52-11.44c-.31-1.4-2-2.1-3.44-1.8a8.24,8.24,0,0,0-3.63,2.24c-4.86,4.29-10.06,8.7-16.42,10a6.72,6.72,0,0,0-3.48,1.29,5.18,5.18,0,0,0-1.13,2c-2.32,6.48-2.46,13.56-4.38,20.18S94,313.23,90.33,319.17q-4.62,7.51-9.26,15a9.32,9.32,0,0,1-2.64,3.13A11.92,11.92,0,0,1,75,338.55,20.75,20.75,0,0,0,63.46,347a18.09,18.09,0,0,1,8.61-3,22.57,22.57,0,0,0-7.86,13A91.19,91.19,0,0,1,72,347a59.53,59.53,0,0,0-2.76,16.26q2.7-4.71,5.39-9.41a7.22,7.22,0,0,1,2.21-2.7c1.38-.87,3.14-.71,4.78-.84s3.5-.84,3.87-2.44Z"/><path class="cls-2" d="M144.39,186.92a6.56,6.56,0,0,1,1.26-.12A2.84,2.84,0,0,1,144.39,186.92Z"/><path class="cls-2" d="M172,81.08a3.59,3.59,0,0,1-.87-.14A8.74,8.74,0,0,1,172,81.08Z"/><path class="cls-2" d="M138.25,172c-1.44,3.32,3.34,14.47,6.14,14.91a8.3,8.3,0,1,0,3.25,16.26c-1.7,4.11-7.91,5-9.29,9.21-1.22,3.71,2.2,7.38,5.77,9s7.69,2.21,10.6,4.8c-7.11,6.85-9.89,5.87-19.72,4.93a100.39,100.39,0,0,1-21.93-4.41,35.76,35.76,0,0,1,4.39-64.31c-2.94-3.42-10.44-4.45-9-8.71a5.93,5.93,0,0,1,2.25-2.52q6.33-4.71,12.92-9.06c-2.24-4.08-11-1.86-11.39-6.49-.19-1.94,1.54-3.47,3.15-4.55a55,55,0,0,1,16.79-7.53,62.49,62.49,0,0,1-29-5.42c-2.65-1.2-5.63-3.36-5.15-6.22.43-2.51,3.26-3.74,5.73-4.36a57.82,57.82,0,0,1,43,6.25L106,71.43c-2.11-2.19-4-6.27-1.31-7.68,1.19-.63,2.64-.19,3.89.3,11.7,4.64,21.16,13.46,30.31,22.1L107.68,48.43c-1.91-2.32-3.89-4.75-4.56-7.68s.41-6.5,3.18-7.67a131.54,131.54,0,0,0,29.9,23.86L111.09,19c-1.93-2.91-3.91-6-4.45-9.4s.75-7.46,3.91-9l61.31,59.18c2.49,2.41,5,4.86,7.47,7.38h-.07c-4,.21-8.41,1.3-10.69,4.62-2.11,3.06-.84,8.25,2.54,9.16a8.47,8.47,0,0,0-3.18,16.6c-8.1,0-7.93,21.47,6.07,34.72-50.5,12.5-11.5,28.25-11.5,28.25S142.33,162.55,138.25,172Z"/><path class="cls-2" d="M219.74,175a14.6,14.6,0,0,1-3.11,3.59,11.81,11.81,0,0,1-11.42,2.12,7.39,7.39,0,0,1-5,6.09l-.42.12v-.12c.25-9.15.94-17.87,1.41-26.72.91,1.94,4.11,2.7,5.95,3.48C212.63,165.9,216,170.67,219.74,175Z"/><path class="cls-6" d="M341.2,312.36l-23.53,21.15a12.31,12.31,0,0,0,1.12,2.19A38.36,38.36,0,0,0,341.2,312.36Z"/><path class="cls-4" d="M289.88,328.63l-11.31-5.43c6.48,10,16.84,14.71,29.17,14.71.47,0,.94,0,1.42,0L292,329.64Z"/><path class="cls-4" d="M271.57,293.17l39.63-27.24c0-17.11.95-30.92,2.76-32.3-.53.3-1.38.79-2.45,1.43C302.2,242.57,274.1,267.23,271.57,293.17Z"/><path class="cls-4" d="M315.09,233.48l-.43-.24-.12.07c.89,1.06,16,19.25,24.22,39.18l.23.09C331.58,254.16,318.07,237.11,315.09,233.48Z"/><path class="cls-4" d="M313.48,337.28a34.24,34.24,0,0,0,5.31-1.58,12.31,12.31,0,0,1-1.12-2.19Z"/><path class="cls-4" d="M314.66,364.74c-30.12,0-54.54-29.41-54.66-65.75v.25c0,36.45,24.47,66,54.66,66s54.67-29.55,54.67-66V299C369.21,335.33,344.78,364.74,314.66,364.74Z"/><polygon class="cls-7" points="314.81 263.45 314.81 263.45 311.2 265.94 311.2 265.94 314.81 263.45"/><path class="cls-7" d="M342.89,306.27a54.83,54.83,0,0,0,1-12.36l0-.76-29.89,23a111.53,111.53,0,0,0,2.38,13.23Z"/><path class="cls-7" d="M278.57,323.2h0l11.31,5.43Z"/><path class="cls-7" d="M292,329.64l17.16,8.23h0Z"/><path class="cls-7" d="M292,329.64l-2.12-1Z"/><path class="cls-7" d="M314,316.13l-1.1.85-41.41-18,0,.47a54.91,54.91,0,0,0,4.38,18.79c11.89,5.5,34.77,16.12,34.77,16.13l5.71-5"/><polygon class="cls-7" points="271.57 293.17 311.2 265.94 311.2 265.94 271.57 293.17 271.57 293.17"/><path class="cls-7" d="M343.85,293.14h0l0,.76Z"/><path class="cls-7" d="M333.66,291.75l3.21-1c.64-.21,1.07-.36,1.79-.62h0c-1.1.61-1.46.79-2.23,1.25l-1.51.9,1.26.5,5-2.95-1.62-.64-3,.93c-.65.21-1.15.39-1.92.65l0,0c.7-.38,1.3-.7,2.09-1.17l1.52-.9-1.25-.5-5,2.94Z"/><path class="cls-7" d="M315.46,292.85l1.24.49,1.18-.7-3.82-1.51-1.18.7,1.24.49L312,293.59c0,.43.05.85.07,1.28Z"/><path class="cls-7" d="M311.67,295.1l.39-.23c0-.43-.05-.85-.07-1.28l-1.65,1Z"/><path class="cls-7" d="M339.68,288.6a3.22,3.22,0,0,0,2.71-.34l-.83-.33a1.58,1.58,0,0,1-1.15.26c-.25-.1-.12-.32.32-.59l-.85-.34C339.05,287.8,338.87,288.29,339.68,288.6Z"/><polygon class="cls-7" points="323.09 287.55 325.06 286.38 326.39 286.92 324.43 288.08 325.76 288.62 330.73 285.67 329.39 285.14 327.6 286.2 326.25 285.67 328.05 284.6 326.71 284.08 321.75 287.02 323.09 287.55"/><path class="cls-7" d="M328.44,289.67l3.21-1c.65-.21,1.08-.36,1.79-.62h0c-1.09.61-1.45.79-2.23,1.25l-1.51.9,1.26.5,5-2.95-1.62-.65-3,.94c-.65.21-1.15.39-1.91.65l0,0c.71-.38,1.3-.7,2.09-1.17l1.52-.91-1.25-.49-5,2.94Z"/><path class="cls-7" d="M303.78,292c.87.35,2.64.93,4.06.1.67-.4.66-.82.15-1.14h0a2.85,2.85,0,0,0,1.95-.3c1.18-.69-.12-1.3-.85-1.59s-1.47-.51-1.84-.61l-4.9,2.91A13.41,13.41,0,0,0,303.78,292Zm3.93-2.52.5.16c.53.21.55.42.23.61a1.59,1.59,0,0,1-1.41,0l-.34-.14Zm-1.93,1.14.39.15c.62.25.77.51.34.76a1.79,1.79,0,0,1-1.55,0,2.49,2.49,0,0,1-.42-.19Z"/><path class="cls-7" d="M317,285.1a12.5,12.5,0,0,0,1.41.64c.87.35,2.64.93,4.05.1.67-.4.67-.82.16-1.14h0a2.85,2.85,0,0,0,2-.3c1.17-.69-.12-1.3-.85-1.59s-1.47-.51-1.84-.61Zm4.14.17a1.79,1.79,0,0,1-1.55,0,3.13,3.13,0,0,1-.43-.19l1.25-.74.39.15C321.37,284.76,321.51,285,321.09,285.27Zm1.7-1.89c.53.21.55.42.23.61a1.59,1.59,0,0,1-1.41,0l-.34-.14,1-.61Z"/><path class="cls-7" d="M313.48,290.9l-1.33-.53-.32.19.06,1.28Z"/><path class="cls-7" d="M308.52,293.84l3.37-2-.06-1.28-4.64,2.76Z"/><path class="cls-7" d="M315,289.35a1.79,1.79,0,0,0-1.48.19c-.43.25-.5.56-.08.73a1.83,1.83,0,0,0,1.49-.18C315.35,289.83,315.41,289.52,315,289.35Z"/><path class="cls-7" d="M320.78,281.11a1.83,1.83,0,0,0,1.49-.17c.43-.27.5-.58.07-.75a1.79,1.79,0,0,0-1.48.19C320.42,280.63,320.36,281,320.78,281.11Z"/><path class="cls-7" d="M311.47,277.91l-.12,0,.06,1.92C312.42,279.13,312.79,278.43,311.47,277.91Z"/><path class="cls-7" d="M308.62,278.2a4.45,4.45,0,0,1,1.55.24c.66.26.41.53.14.69l-.07,0a5,5,0,0,0-4.41.14c-.79.47-1,1.1-.14,1.45a3.35,3.35,0,0,0,1.83.12h0l-.42.33,1.2.47a11.93,11.93,0,0,1,1.15-.74l1.72-1,.21-.14-.06-1.92a6.21,6.21,0,0,0-2-.36Zm.16,1.88a1.59,1.59,0,0,1-.29.15,2,2,0,0,1-1.26.06c-.3-.12-.33-.32.06-.56a2.3,2.3,0,0,1,2,0Z"/><path class="cls-7" d="M300.34,290.7a4.92,4.92,0,0,0,1.41.34l1-.74a3.51,3.51,0,0,1-.91-.21c-.65-.26-.7-.75.22-1.29a3,3,0,0,1,2.53-.37,1.23,1.23,0,0,1,.59.38l1.36-.6a2.31,2.31,0,0,0-.82-.51,6.13,6.13,0,0,0-5.09.59C299.05,289.22,299,290.15,300.34,290.7Z"/><path class="cls-7" d="M311.66,283.13a5.81,5.81,0,0,0,4.6-.81c1.59-.94,1.69-1.84.76-2.21a3.85,3.85,0,0,0-2.23-.09h0l.63-.44-1.15-.46c-.44.28-1,.62-1.63,1l-1.18.7c0,.74,0,1.48.07,2.22A.71.71,0,0,0,311.66,283.13Zm.82-1.58a2,2,0,0,1,.29-.2l.69-.41.3-.15a2.28,2.28,0,0,1,1.57-.15c.6.24.3.72-.49,1.19a2.89,2.89,0,0,1-2.32.46C312.14,282.14,312.15,281.83,312.48,281.55Z"/><path class="cls-7" d="M308.64,283.81l2.46-1.47h0c-.12.24,0,.5.39.7,0-.74-.05-1.48-.07-2.22l-4.13,2.45Z"/><path class="cls-7" d="M303.59,279.81l6.84-4.06-1.32-.53-2.89,1.71a3.45,3.45,0,0,1-1.12-.19c-.63-.25-.61-.61.17-1.08l2-1.17-1.32-.53-2.25,1.33c-1.47.88-1.36,1.57-.3,2a5.13,5.13,0,0,0,1.68.31h0l-2.82,1.67Z"/><polygon class="cls-7" points="315.87 284.69 320.84 281.74 319.5 281.21 314.55 284.16 315.87 284.69"/><path class="cls-8" d="M320.75,284.51l-.39-.15-1.25.74a3.13,3.13,0,0,0,.43.19,1.79,1.79,0,0,0,1.55,0C321.51,285,321.37,284.76,320.75,284.51Z"/><polygon class="cls-8" points="338.76 272.49 314.81 263.45 314.81 263.45 338.76 272.49 338.76 272.49"/><polygon class="cls-8" points="317.67 333.51 341.2 312.36 341.2 312.36 317.67 333.51 317.67 333.51"/><polygon class="cls-8" points="338.99 272.58 338.99 272.58 338.76 272.49 338.76 272.49 338.99 272.58"/><polygon class="cls-8" points="317.67 333.51 313.48 337.28 313.48 337.28 317.67 333.51 317.67 333.51"/><path class="cls-8" d="M316.34,329.37a36.27,36.27,0,0,0,1.32,4.13h0l23.52-21.13h0a46.16,46.16,0,0,0,1.68-6.06s0,0,0,0l-26.51,23.06Z"/><path class="cls-8" d="M343.82,292.57a63.85,63.85,0,0,0-5.06-20.08l-23.94-9-3.62,2.48-39.63,27.24a38.35,38.35,0,0,0-.12,5.77l41.41,18,1.1-.85,29.89-23Zm-23-12.19a1.79,1.79,0,0,1,1.48-.19c.43.17.36.48-.07.75a1.83,1.83,0,0,1-1.49.17C320.36,281,320.42,280.63,320.86,280.38Zm0,1.36-5,2.95-1.32-.53,5-3Zm-5.93,8.35a1.83,1.83,0,0,1-1.49.18c-.42-.17-.35-.48.08-.73a1.79,1.79,0,0,1,1.48-.19C315.41,289.52,315.35,289.83,314.91,290.09Zm-.66-11,1.15.46-.63.44h0a3.85,3.85,0,0,1,2.23.09c.93.37.83,1.27-.76,2.21a5.81,5.81,0,0,1-4.6.81.71.71,0,0,1-.15-.08c-.38-.2-.51-.46-.39-.7h0l-2.46,1.47-1.33-.53,4.13-2.45,1.18-.7C313.27,279.74,313.81,279.4,314.25,279.12Zm-2.9-1.25.12,0c1.32.52.95,1.22-.06,1.88l-.21.14-1.72,1a11.93,11.93,0,0,0-1.15.74l-1.2-.47.42-.33h0a3.35,3.35,0,0,1-1.83-.12c-.86-.35-.65-1,.14-1.45a5,5,0,0,1,4.41-.14l.07,0c.27-.16.52-.43-.14-.69a4.45,4.45,0,0,0-1.55-.24l.75-.69A6.21,6.21,0,0,1,311.35,277.87Zm-6.29-.27a5.13,5.13,0,0,1-1.68-.31c-1.06-.43-1.17-1.12.3-2l2.25-1.33,1.32.53-2,1.17c-.78.47-.8.83-.17,1.08a3.45,3.45,0,0,0,1.12.19l2.89-1.71,1.32.53-6.84,4.06-1.33-.53,2.82-1.67Zm-4.72,13.1c-1.38-.55-1.29-1.48.27-2.41a6.13,6.13,0,0,1,5.09-.59,2.31,2.31,0,0,1,.82.51l-1.36.6a1.23,1.23,0,0,0-.59-.38,3,3,0,0,0-2.53.37c-.92.54-.87,1-.22,1.29a3.51,3.51,0,0,0,.91.21l-1,.74A4.92,4.92,0,0,1,300.34,290.7Zm3.44,1.33a13.41,13.41,0,0,1-1.41-.64l4.9-2.91c.37.1,1.18.35,1.84.61s2,.9.85,1.59a2.85,2.85,0,0,1-1.95.3h0c.51.32.52.74-.15,1.14C306.42,293,304.65,292.38,303.78,292Zm3.41,1.29,4.64-2.76.32-.19,1.33.53-1.59.94-3.37,2Zm9.51,0-1.24-.49-3.4,2-.39.23-1.33-.53,1.65-1,2.13-1.27-1.24-.49,1.18-.7,3.82,1.51Zm1.66-7.6a12.5,12.5,0,0,1-1.41-.64l4.9-2.91c.37.1,1.18.35,1.84.61s2,.9.85,1.59a2.85,2.85,0,0,1-2,.3h0c.51.32.51.74-.16,1.14C321,286.67,319.23,286.09,318.36,285.74Zm6.07,2.34,2-1.16-1.34-.54-2,1.17-1.33-.53,5-2.94,1.33.52-1.79,1.07,1.34.53,1.8-1.06,1.33.53-5,2.95Zm5.3,2.11,1.51-.9c.78-.46,1.14-.64,2.23-1.25h0c-.71.26-1.14.41-1.79.62l-3.21,1-1.62-.64,5-2.94,1.25.49-1.52.91c-.79.47-1.38.79-2.09,1.17l0,0c.76-.26,1.26-.44,1.91-.65l3-.94,1.62.65-5,2.95Zm6.48,2.57-1.26-.5,1.51-.9c.77-.46,1.13-.64,2.23-1.25h0c-.72.26-1.15.41-1.79.62l-3.21,1L332,291.1l5-2.94,1.25.5-1.52.9c-.79.47-1.39.79-2.09,1.17l0,0c.77-.26,1.27-.44,1.92-.65l3-.93,1.62.64Zm3.47-4.16c-.81-.31-.63-.8.2-1.34l.85.34c-.44.27-.57.49-.32.59a1.58,1.58,0,0,0,1.15-.26l.83.33A3.22,3.22,0,0,1,339.68,288.6Z"/><path class="cls-8" d="M343.82,292.07A62.65,62.65,0,0,0,339,272.58l-.23-.09a63.85,63.85,0,0,1,5.06,20.08l0,.58h0C343.84,292.78,343.84,292.44,343.82,292.07Z"/><path class="cls-8" d="M310.63,334.33s-22.88-10.63-34.77-16.13a36.6,36.6,0,0,0,2.71,5l11.31,5.43,2.12,1,17.16,8.23a29.28,29.28,0,0,0,4.31-.59l4.2-3.77a34.09,34.09,0,0,1-1.33-4.15Z"/><path class="cls-8" d="M312.52,282.29a2.89,2.89,0,0,0,2.32-.46c.79-.47,1.09-.95.49-1.19a2.28,2.28,0,0,0-1.57.15l-.3.15-.69.41a2,2,0,0,0-.29.2C312.15,281.83,312.14,282.14,312.52,282.29Z"/><path class="cls-8" d="M307.29,279.73c-.39.24-.36.44-.06.56a2,2,0,0,0,1.26-.06,1.59,1.59,0,0,0,.29-.15l.54-.32A2.3,2.3,0,0,0,307.29,279.73Z"/><path class="cls-8" d="M308.44,290.28c.32-.19.3-.4-.23-.61l-.5-.16-1,.61.34.14A1.59,1.59,0,0,0,308.44,290.28Z"/><path class="cls-8" d="M306.51,291.56c.43-.25.28-.51-.34-.76l-.39-.15-1.24.74a2.49,2.49,0,0,0,.42.19A1.79,1.79,0,0,0,306.51,291.56Z"/><path class="cls-8" d="M321.61,284a1.59,1.59,0,0,0,1.41,0c.32-.19.3-.4-.23-.61l-.5-.16-1,.61Z"/><path class="cls-4" d="M369.33,299v-.26c0-36.45-54.67-66-54.67-66l-.12.07.55.67C320.15,236.3,369.1,264.54,369.33,299Z"/><path class="cls-4" d="M343.07,307l-1.87,5.41a38.36,38.36,0,0,1-22.41,23.34"/><path class="cls-4" d="M311.51,235.06c1.11-.89,1.95-1.55,2.45-1.93-6.34,3.58-54,31.59-54,65.61V299C260.21,268,299.91,242,311.51,235.06Z"/><path class="cls-4" d="M318.79,335.7a34.24,34.24,0,0,1-5.31,1.58l-2.06.63s-.2.3-2.26.07c-.48,0-1-.07-1.42-.07-12.33,0-22.69-4.71-29.17-14.71a17.46,17.46,0,0,1-2.71-4.64c-.56-1.52-1.22-4.8-2.11-5.23"/><path class="cls-4" d="M274.22,314c-.67-.06-3.32-16.73-2.94-19.26l.29-1.56c2.53-25.94,30.63-50.6,39.94-58.11C299.91,242,260.21,268,260,299c.12,36.34,24.54,65.75,54.66,65.75s54.55-29.41,54.67-65.74c-.23-34.46-49.18-62.7-54.24-65.52,3,3.63,16.49,20.68,23.9,39.1l4.1,12.88L344,297.2l-1,9.88a35,35,0,0,0-1.86,5.28"/><path class="cls-2" d="M269.76,198.68s2.64,3.61,4.8,2.4,3.75-1.82,5.73-.13,1.47,4.65,1.47,4.65l2.31,2.65s-3-1.52-3.52-1.77-3.12.54-4.49-.58a6.83,6.83,0,0,1-2.23-3.18C273.74,202.23,270.37,200.27,269.76,198.68Z"/><path class="cls-5" d="M319.39,242c-1-1.3-2.13-2.57-3.25-3.82l10,6.48a54.1,54.1,0,0,0-4.71-5.58.75.75,0,0,0-.15-.16c-8.27-8.62-19-15.37-26.78-24.32a45.8,45.8,0,0,1-3.69-6.27l0-.07a1.94,1.94,0,0,0-.32-.46s-1.56.15-1.64.16c-6.34.8-10.24,1.58-9.94,9.28,2.45.17,4.72,1.07,8.11,3l.44.3c7.68,5.37,14.46,10.5,24.12,18.06h0c3.59,2.81,7.58,6,12.16,9.58a54,54,0,0,0-4.17-6A.75.75,0,0,0,319.39,242Z"/><path class="cls-2" d="M216.83,148.58a3.59,3.59,0,0,1-.87-.14A8.74,8.74,0,0,1,216.83,148.58Z"/></g></g></svg>